<svg width="1512" height="844" viewBox="0 0 1512 844" fill="none" xmlns="http://www.w3.org/2000/svg">
<path fill-rule="evenodd" clip-rule="evenodd" d="M960.525 145.31C861.981 145.31 777.592 227.18 777.592 333.786C777.592 440.392 861.981 522.261 960.525 522.261C1003.87 522.261 1043.23 507.099 1074.87 480.918C1203.54 374.423 1393.6 393.112 1499.37 522.663C1503.8 528.086 1508.01 533.617 1512 539.245V128.326C1508.01 133.954 1503.8 139.485 1499.37 144.908C1393.6 274.46 1203.54 293.148 1074.87 186.653C1043.23 160.472 1003.87 145.31 960.525 145.31ZM246.778 0L0 0L0 39.6403C70.963 58.5218 139.408 83.6429 204.72 114.385C215.887 74.9414 229.989 36.7241 246.778 0ZM174.618 844C126.452 782.905 67.2316 731.045 0 691.484V844H174.618Z" fill="#50192F"/>
</svg>
