<svg width="1512" height="844" viewBox="0 0 1512 844" fill="none" xmlns="http://www.w3.org/2000/svg">
<path fill-rule="evenodd" clip-rule="evenodd" d="M981.525 148.31C882.981 148.31 798.592 230.18 798.592 336.786C798.592 443.392 882.981 525.261 981.525 525.261C1024.87 525.261 1064.23 510.099 1095.87 483.918C1221.22 380.176 1404.81 395.229 1512 515.839V157.732C1404.81 278.342 1221.22 293.395 1095.87 189.653C1064.23 163.472 1024.87 148.31 981.525 148.31ZM269.157 0L0 0L0 37.2534C78.4762 56.6372 153.987 83.6208 225.72 117.385C237.191 76.8662 251.76 37.6414 269.157 0ZM193.238 844C140.515 777.953 74.8004 722.866 0 682.669V844H193.238Z" fill="#50192F"/>
</svg>
