<svg width="1512" height="844" viewBox="0 0 1512 844" fill="none" xmlns="http://www.w3.org/2000/svg">
<path fill-rule="evenodd" clip-rule="evenodd" d="M741.631 200.391C649.269 200.391 570.174 277.149 570.174 377.098C570.174 477.048 649.269 553.806 741.631 553.806C782.255 553.806 819.152 539.591 848.802 515.044C969.405 415.198 1147.54 432.72 1246.67 554.183C1315.28 638.23 1328.08 750.021 1289.5 844H1512V0H1310.35C1315.06 69.8787 1294.33 141.638 1246.67 200.014C1147.54 321.477 969.405 338.998 848.802 239.153C819.152 214.606 782.255 200.391 741.631 200.391ZM105.805 0H0V156.392C11.1713 161.222 22.2513 166.225 33.2368 171.397C50.3839 110.812 74.9154 53.3131 105.805 0Z" fill="#50192F"/>
</svg>
