<svg width="1512" height="844" viewBox="0 0 1512 844" fill="none" xmlns="http://www.w3.org/2000/svg">
<path fill-rule="evenodd" clip-rule="evenodd" d="M761.187 168.921C662.102 168.921 577.249 251.278 577.249 358.518C577.249 465.758 662.102 548.114 761.187 548.114C804.768 548.114 844.35 532.862 876.159 506.525C1005.54 399.397 1196.64 418.196 1302.99 548.519C1372.86 634.125 1388.78 746.558 1354.8 844H1512V0H1370.96C1366.05 59.7633 1343.66 118.685 1302.99 168.517C1196.64 298.839 1005.54 317.639 876.159 210.51C844.35 184.173 804.768 168.921 761.187 168.921ZM54.3477 0L0 0L0 137.235C0.409844 137.427 0.819565 137.62 1.22916 137.813C14.782 89.9204 32.6349 43.8256 54.3477 0Z" fill="#50192F"/>
</svg>
