<svg width="1512" height="844" viewBox="0 0 1512 844" fill="none" xmlns="http://www.w3.org/2000/svg">
<path fill-rule="evenodd" clip-rule="evenodd" d="M739.187 180.921C640.102 180.921 555.249 263.278 555.249 370.518C555.249 477.758 640.102 560.114 739.187 560.114C782.768 560.114 822.35 544.862 854.159 518.525C983.54 411.397 1174.64 430.196 1280.99 560.519C1348.01 642.632 1365.39 749.427 1336.71 844H1512V0H1349.71C1346.97 63.8411 1324.39 127.352 1280.99 180.517C1174.64 310.839 983.54 329.639 854.159 222.51C822.35 196.173 782.768 180.921 739.187 180.921ZM38.4185 0L0 0V86.5534C11.1459 56.8282 23.9912 27.9352 38.4185 0Z" fill="#50192F"/>
</svg>
