<svg width="1512" height="844" viewBox="0 0 1512 844" fill="none" xmlns="http://www.w3.org/2000/svg">
<path fill-rule="evenodd" clip-rule="evenodd" d="M960.525 140.31C861.981 140.31 777.592 222.18 777.592 328.786C777.592 435.392 861.981 517.261 960.525 517.261C1003.87 517.261 1043.23 502.099 1074.87 475.918C1203.54 369.423 1393.6 388.111 1499.37 517.663C1503.8 523.086 1508.01 528.617 1512 534.245V123.326C1508.01 128.954 1503.8 134.485 1499.37 139.908C1393.6 269.46 1203.54 288.148 1074.87 181.653C1043.23 155.472 1003.87 140.31 960.525 140.31ZM244.513 0H0V34.6403C70.963 53.5218 139.408 78.6429 204.72 109.385C215.381 71.7282 228.718 35.1891 244.513 0ZM178.519 844C129.664 780.732 69.0582 727.12 0 686.484V844H178.519Z" fill="#50192F"/>
</svg>
