<svg width="160" height="191" viewBox="0 0 160 191" fill="none" xmlns="http://www.w3.org/2000/svg">
<path fill-rule="evenodd" clip-rule="evenodd" d="M80.3093 174.334C76.685 174.334 73.676 174.043 71.3308 173.424L71.3216 173.422C68.9928 172.791 67.1208 171.824 65.8872 170.422L65.8746 170.408C64.6733 169.001 64.1081 167.292 64.1081 165.362C64.1081 163.432 64.6732 161.726 65.8801 160.332L65.8815 160.33C67.1167 158.908 68.9931 157.94 71.327 157.323C73.6753 156.687 76.686 156.39 80.3093 156.39C83.9327 156.39 86.9434 156.687 89.2915 157.323C91.6254 157.939 93.499 158.91 94.7196 160.338L94.7343 160.352C95.9614 161.746 96.5106 163.427 96.5106 165.362C96.5106 167.293 95.936 169.003 94.7191 170.408C93.4999 171.816 91.6257 172.791 89.2969 173.422L89.2877 173.424C86.9427 174.043 83.9336 174.334 80.3093 174.334ZM86.3121 164.031C85.2095 163.352 81.8203 163.229 80.2634 163.253H79.9571C77.6602 163.324 75.5163 163.678 74.7507 163.89C73.5256 164.173 73.296 165.022 73.296 165.447C73.296 166.69 74.9294 167.003 75.746 167.145C77.2882 167.375 78.8842 167.48 80.2634 167.499C80.5824 167.503 80.8897 167.503 81.1822 167.498C83.081 167.498 85.3677 167.121 85.8527 166.862C86.7715 166.437 87.1543 166.013 87.1543 165.163C87.1543 164.597 86.5928 164.173 86.3121 164.031ZM0 173.867H9.9535L11.5614 171.673H21.4383L22.9696 173.867H33.0762L20.5961 156.814H12.327L0 173.867ZM16.4564 162.515L13.1091 167.332H19.8309L16.4564 162.515ZM34.5356 156.814V173.867H52.8347C55.1826 173.867 59.4959 173.584 61.4866 171.532C62.4819 170.683 63.707 168.135 61.8694 165.942C61.7163 165.777 61.3181 165.347 60.6444 164.951C61.2059 164.503 62.2383 163.324 61.946 161.343L61.945 161.337C61.7919 160.299 61.5569 158.706 58.1943 157.522C57.6583 157.333 55.8207 156.885 50.9971 156.814H34.5356ZM42.5968 164.437H52.205C53.08 164.437 53.7074 164.361 54.087 164.209C54.4833 164.056 54.6813 163.812 54.6813 163.476C54.6813 163.125 54.4833 162.881 54.087 162.744C53.7074 162.591 53.08 162.515 52.205 162.515H42.5968V164.437ZM53.2451 168.557H42.5968V166.634H53.2451C53.8228 166.634 54.2934 166.672 54.6566 166.749C55.0199 166.81 55.2839 166.909 55.4491 167.046C55.6306 167.184 55.7214 167.367 55.7214 167.595C55.7214 167.931 55.5234 168.175 55.1271 168.328C54.7474 168.48 54.1201 168.557 53.2451 168.557ZM131.824 156.885H160V163.678H150.353V173.867H141.548V163.678H131.824V156.885ZM121.679 156.814H120.301V158.088V164.314C120.301 165.321 120.03 165.879 119.701 166.198L119.695 166.204L119.689 166.21C119.296 166.602 118.667 166.94 117.674 167.143C116.598 167.347 115.291 167.456 113.741 167.456C112.143 167.456 110.815 167.347 109.743 167.145C108.767 166.943 108.141 166.606 107.744 166.21C107.423 165.891 107.156 165.328 107.156 164.314V158.088V156.814H105.778H99.6527H98.2746V158.088V165.333C98.2746 166.763 98.5473 168.063 99.1552 169.186L99.1614 169.198L99.1678 169.209C99.7731 170.274 100.609 171.164 101.664 171.868L101.67 171.872L101.677 171.877C102.699 172.541 103.869 173.043 105.172 173.394L105.174 173.394L105.176 173.395C106.457 173.736 107.828 173.967 109.286 174.095C110.725 174.235 112.21 174.305 113.741 174.305C115.19 174.305 116.617 174.235 118.02 174.095C119.465 173.967 120.829 173.736 122.109 173.395C123.424 173.046 124.614 172.547 125.663 171.889L125.67 171.885L125.676 171.88C126.767 171.179 127.627 170.286 128.239 169.211C128.89 168.081 129.182 166.772 129.182 165.333V158.088V156.814H127.804H121.679Z" fill="#50192F"/>
<path d="M34.0788 187.298C33.989 188.076 33.7149 188.739 33.2563 189.287C32.7978 189.835 32.1747 190.254 31.3872 190.543C30.5997 190.832 29.6626 190.977 28.576 190.977C27.6688 190.977 26.8364 190.872 26.0788 190.663C25.3311 190.453 24.6831 190.139 24.1348 189.721C23.5965 189.302 23.1778 188.783 22.8788 188.165C22.5797 187.537 22.4302 186.805 22.4302 185.967C22.4302 185.13 22.5797 184.397 22.8788 183.769C23.1778 183.141 23.5965 182.618 24.1348 182.199C24.6831 181.77 25.3311 181.451 26.0788 181.242C26.8364 181.023 27.6688 180.913 28.576 180.913C29.6626 180.913 30.5997 181.063 31.3872 181.362C32.1847 181.661 32.8127 182.089 33.2713 182.648C33.7299 183.196 33.999 183.864 34.0788 184.651H32.1049C31.9754 184.233 31.756 183.874 31.447 183.575C31.1479 183.266 30.7591 183.031 30.2806 182.872C29.8021 182.712 29.2339 182.633 28.576 182.633C27.7585 182.633 27.0408 182.762 26.4227 183.021C25.8046 183.271 25.3261 183.645 24.9872 184.143C24.6482 184.631 24.4788 185.24 24.4788 185.967C24.4788 186.685 24.6482 187.288 24.9872 187.777C25.3261 188.265 25.8046 188.639 26.4227 188.898C27.0408 189.147 27.7585 189.272 28.576 189.272C29.2339 189.272 29.7972 189.192 30.2657 189.033C30.7442 188.873 31.133 188.644 31.432 188.345C31.7411 188.046 31.9654 187.697 32.1049 187.298H34.0788ZM41.7762 190.977C40.4903 190.977 39.3887 190.777 38.4716 190.379C37.5644 189.97 36.8665 189.392 36.3781 188.644C35.8996 187.896 35.6603 186.999 35.6603 185.952C35.6603 184.896 35.8996 183.993 36.3781 183.246C36.8665 182.498 37.5644 181.925 38.4716 181.526C39.3887 181.117 40.4903 180.913 41.7762 180.913C43.0721 180.913 44.1737 181.117 45.0809 181.526C45.988 181.925 46.6809 182.498 47.1594 183.246C47.6478 183.993 47.8921 184.896 47.8921 185.952C47.8921 186.999 47.6478 187.896 47.1594 188.644C46.6809 189.392 45.988 189.97 45.0809 190.379C44.1737 190.777 43.0721 190.977 41.7762 190.977ZM41.7762 189.257C42.5737 189.257 43.2716 189.137 43.8697 188.898C44.4777 188.659 44.9513 188.295 45.2903 187.807C45.6391 187.318 45.8136 186.7 45.8136 185.952C45.8136 185.205 45.6391 184.587 45.2903 184.098C44.9513 183.61 44.4777 183.246 43.8697 183.007C43.2716 182.757 42.5737 182.633 41.7762 182.633C40.9887 182.633 40.2859 182.757 39.6678 183.007C39.0497 183.246 38.5662 183.61 38.2174 184.098C37.8684 184.587 37.694 185.205 37.694 185.952C37.694 186.7 37.8684 187.318 38.2174 187.807C38.5662 188.295 39.0497 188.659 39.6678 188.898C40.2859 189.137 40.9887 189.257 41.7762 189.257ZM59.6429 188.808L59.0148 189.063V181.107H61.0036V190.782H59.0148L51.1943 183.141L51.8223 182.887V190.782H49.8335V181.107H51.8223L59.6429 188.808ZM62.6688 187.522H64.6875C64.7274 187.861 64.8819 188.17 65.1511 188.45C65.4302 188.719 65.794 188.933 66.2426 189.093C66.6912 189.242 67.1947 189.317 67.7529 189.317C68.2613 189.317 68.68 189.262 69.009 189.152C69.338 189.043 69.5823 188.888 69.7417 188.689C69.9013 188.489 69.981 188.25 69.981 187.971C69.981 187.702 69.8814 187.498 69.6819 187.358C69.4826 187.208 69.1685 187.089 68.7398 186.999C68.3113 186.899 67.748 186.8 67.0501 186.7C66.5019 186.62 65.9835 186.511 65.495 186.371C65.0066 186.221 64.573 186.032 64.194 185.803C63.8253 185.574 63.5312 185.294 63.3118 184.965C63.1025 184.626 62.9978 184.228 62.9978 183.769C62.9978 183.201 63.1573 182.702 63.4763 182.274C63.8053 181.845 64.2888 181.511 64.9268 181.272C65.5648 181.033 66.3473 180.913 67.2744 180.913C68.6702 180.913 69.7417 181.212 70.4894 181.81C71.2471 182.398 71.6159 183.211 71.5959 184.248H69.652C69.6122 183.66 69.3629 183.236 68.9043 182.977C68.4557 182.717 67.8875 182.588 67.1996 182.588C66.5617 182.588 66.0333 182.683 65.6146 182.872C65.2059 183.061 65.0015 183.385 65.0015 183.844C65.0015 184.023 65.0515 184.183 65.1511 184.322C65.2508 184.452 65.4202 184.567 65.6595 184.666C65.8987 184.766 66.2228 184.861 66.6314 184.95C67.0402 185.04 67.5487 185.13 68.1567 185.22C68.7249 185.299 69.2384 185.409 69.6968 185.549C70.1655 185.678 70.5641 185.853 70.8931 186.072C71.2321 186.281 71.4912 186.55 71.6707 186.879C71.8501 187.208 71.9398 187.612 71.9398 188.091C71.9398 188.679 71.7854 189.192 71.4763 189.631C71.1772 190.06 70.7087 190.393 70.0707 190.633C69.4426 190.872 68.6253 190.992 67.6183 190.992C66.9006 190.992 66.2676 190.917 65.7193 190.767C65.1711 190.608 64.6975 190.398 64.2987 190.139C63.9001 189.88 63.576 189.596 63.3268 189.287C63.0776 188.978 62.8982 188.669 62.7884 188.36C62.6888 188.051 62.6489 187.772 62.6688 187.522ZM82.5767 186.506V181.107H84.5655V186.715C84.5655 187.353 84.4707 187.911 84.2814 188.39C84.1019 188.868 83.8426 189.272 83.5038 189.601C83.1648 189.93 82.7662 190.199 82.3075 190.408C81.8589 190.608 81.3655 190.752 80.8272 190.842C80.2987 190.932 79.7405 190.977 79.1524 190.977C78.5443 190.977 77.966 190.932 77.4178 190.842C76.8695 190.752 76.366 190.608 75.9075 190.408C75.4589 190.199 75.0702 189.93 74.7412 189.601C74.4122 189.272 74.1529 188.868 73.9636 188.39C73.7842 187.911 73.6945 187.353 73.6945 186.715V181.107H75.6832V186.506C75.6832 187.263 75.8328 187.841 76.1318 188.24C76.4309 188.629 76.8396 188.898 77.358 189.048C77.8863 189.187 78.4844 189.257 79.1524 189.257C79.8003 189.257 80.3786 189.187 80.887 189.048C81.4053 188.898 81.8141 188.629 82.1131 188.24C82.4221 187.841 82.5767 187.263 82.5767 186.506ZM88.855 181.107V189.122H95.2849V190.782H86.8662V181.107H88.855ZM94.9653 181.107H105.163V182.767H94.9653V181.107ZM99.0775 182.558H101.066V190.782H99.0775V182.558ZM106.893 181.107H108.882V190.782H106.893V181.107ZM121.267 188.808L120.639 189.063V181.107H122.627V190.782H120.639L112.818 183.141L113.446 182.887V190.782H111.457V181.107H113.446L121.267 188.808ZM130.498 190.977C129.601 190.977 128.789 190.872 128.061 190.663C127.343 190.453 126.72 190.139 126.192 189.721C125.673 189.302 125.275 188.783 124.996 188.165C124.716 187.547 124.577 186.835 124.577 186.027C124.577 185.21 124.721 184.487 125.01 183.859C125.31 183.221 125.728 182.683 126.267 182.244C126.815 181.805 127.463 181.476 128.21 181.257C128.968 181.028 129.805 180.913 130.723 180.913C131.809 180.913 132.746 181.068 133.534 181.377C134.321 181.676 134.939 182.099 135.388 182.648C135.847 183.196 136.106 183.849 136.166 184.607H134.252C134.122 184.208 133.908 183.864 133.609 183.575C133.319 183.276 132.936 183.046 132.457 182.887C131.979 182.717 131.4 182.633 130.723 182.633C129.855 182.633 129.113 182.772 128.495 183.051C127.886 183.331 127.423 183.724 127.104 184.233C126.785 184.741 126.625 185.339 126.625 186.027C126.625 186.695 126.765 187.273 127.044 187.762C127.323 188.24 127.752 188.609 128.33 188.868C128.918 189.127 129.666 189.257 130.573 189.257C131.271 189.257 131.884 189.167 132.412 188.988C132.951 188.798 133.399 188.549 133.758 188.24C134.117 187.921 134.371 187.567 134.521 187.179L135.298 186.894C135.169 188.18 134.68 189.182 133.833 189.9C132.996 190.618 131.884 190.977 130.498 190.977ZM134.79 190.782C134.79 190.473 134.81 190.119 134.85 189.721C134.89 189.312 134.939 188.903 134.999 188.494C135.059 188.076 135.114 187.692 135.164 187.343H130.738V186.072H136.51V190.782H134.79Z" fill="#50192F"/>
<path fill-rule="evenodd" clip-rule="evenodd" d="M101.887 57.3585C101.887 49.6746 108.011 43.7736 115.162 43.7736C118.308 43.7736 121.164 44.8664 123.46 46.7535C132.798 54.4294 146.59 53.0824 154.266 43.7446C161.943 34.4068 160.595 20.6145 151.258 12.9386C141.447 4.8741 128.851 0 115.162 0C88.9849 0 67.1252 17.6492 60.314 41.5446C48.8723 36.1955 36.106 33.2075 22.6417 33.2075C10.5539 33.2075 0.754883 43.0066 0.754883 55.0943C0.754883 67.182 10.5539 76.9811 22.6417 76.9811C47.6507 76.9811 67.9247 97.2551 67.9247 122.264C67.9247 134.352 77.7238 144.151 89.8115 144.151C101.899 144.151 111.698 134.352 111.698 122.264C111.698 119.68 111.588 117.121 111.373 114.593C112.625 114.675 113.888 114.717 115.162 114.717C128.851 114.717 141.447 109.843 151.258 101.778C160.595 94.1023 161.943 80.31 154.266 70.9724C146.59 61.6346 132.798 60.2875 123.46 67.9635C121.164 69.8506 118.308 70.9434 115.162 70.9434C108.011 70.9434 101.887 65.0424 101.887 57.3585ZM3.81912 118.883C9.33973 129.283 17.8871 137.83 28.2868 143.351C42.277 150.777 55.8492 137.349 55.8492 121.509V120C55.8492 104.161 43.0091 91.3208 27.17 91.3208H25.6605C9.82143 91.3208 -3.60741 104.893 3.81912 118.883Z" fill="#50192F"/>
</svg>
