<svg width="71" height="65" viewBox="0 0 71 65" fill="none" xmlns="http://www.w3.org/2000/svg">
<path fill-rule="evenodd" clip-rule="evenodd" d="M45.3045 25.6323C45.3045 22.1986 48.0479 19.5615 51.2515 19.5615C52.6605 19.5615 53.9403 20.0499 54.9687 20.8932C59.1518 24.3234 65.3304 23.7215 68.7689 19.5486C72.2079 15.3757 71.6041 9.2122 67.4212 5.782C63.0263 2.17814 57.3837 0 51.2515 0C39.5247 0 29.7321 7.88707 26.6809 18.5654C21.5553 16.175 15.8364 14.8398 9.80471 14.8398C4.38972 14.8398 0 19.2188 0 24.6205C0 30.0223 4.38972 34.4013 9.80471 34.4013C21.0081 34.4013 30.0903 43.4613 30.0903 54.6374C30.0903 60.0391 34.48 64.4181 39.895 64.4181C45.31 64.4181 49.6997 60.0391 49.6997 54.6374C49.6997 53.4825 49.6504 52.3392 49.5538 51.2092C50.1148 51.246 50.6809 51.2647 51.2515 51.2647C57.3837 51.2647 63.0263 49.0865 67.4212 45.4827C71.6041 42.0524 72.2079 35.8889 68.7689 31.7161C65.3304 27.5432 59.1518 26.9413 54.9687 30.3715C53.9403 31.2148 52.6605 31.7032 51.2515 31.7032C48.0479 31.7032 45.3045 29.0661 45.3045 25.6323ZM1.3727 53.1265C3.84578 57.7739 7.67479 61.5935 12.3336 64.0606C18.6008 67.3793 24.6808 61.3783 24.6808 54.3001V53.6256C24.6808 46.5474 18.9288 40.8094 11.8333 40.8094H11.1571C4.06158 40.8094 -1.95419 46.8745 1.3727 53.1265Z" fill="#F99F7E"/>
</svg>
