<svg width="1302" height="567" viewBox="0 0 1302 567" fill="none" xmlns="http://www.w3.org/2000/svg">
<path fill-rule="evenodd" clip-rule="evenodd" d="M939.851 359.631C881.104 359.631 830.795 408.112 830.795 471.241C830.795 512.641 852.433 547.742 883.897 567H41.0422C15.4019 535.92 0 496.078 0 452.639C0 353.33 80.4987 272.824 179.799 272.824C290.408 272.824 395.283 297.372 489.275 341.318C545.229 145.001 724.806 0 939.851 0C1052.3 0 1155.78 40.0442 1236.37 106.3C1313.08 169.363 1324.15 282.676 1261.09 359.393C1198.03 436.11 1084.73 447.177 1008.02 384.113C989.159 368.609 965.69 359.631 939.851 359.631ZM1246.15 567C1181.31 505.132 1079 500.015 1008.02 558.368C1004.18 561.522 1000.15 564.406 995.953 567H1246.15Z" fill="url(#paint0_linear_266_653)" fill-opacity="0.56"/>
<defs>
<linearGradient id="paint0_linear_266_653" x1="1220.62" y1="-63.5639" x2="831.663" y2="986.552" gradientUnits="userSpaceOnUse">
<stop stop-color="#F99F7E"/>
<stop offset="1" stop-color="#FAE4CD"/>
</linearGradient>
</defs>
</svg>
