<svg width="136" height="191" viewBox="0 0 136 191" fill="none" xmlns="http://www.w3.org/2000/svg">
<path d="M11.8477 170.624L18.2126 135.581C18.2461 135.448 18.3296 135.382 18.4632 135.382H25.9057C26.0394 135.382 26.1229 135.448 26.1563 135.581L32.2707 170.624C32.2875 170.79 32.2206 170.873 32.0703 170.873H26.3819C26.2148 170.873 26.1229 170.79 26.1063 170.624L25.555 166.888H18.5634L18.0122 170.624C17.9954 170.79 17.9119 170.873 17.7615 170.873H12.0481C11.9145 170.873 11.8477 170.79 11.8477 170.624ZM21.8963 147.112L19.5908 161.434H24.5275L22.4226 147.112L22.1219 145.22L21.8963 147.112ZM44.8754 170.873H35.6787C35.5451 170.873 35.4782 170.79 35.4782 170.624L35.5785 135.581C35.5785 135.448 35.6454 135.382 35.7789 135.382H45.6522C47.5734 135.382 49.3192 135.848 50.8896 136.777C52.4265 137.707 53.6377 138.944 54.5231 140.488C55.4085 142.016 55.8511 143.676 55.8511 145.469C55.8511 146.93 55.517 148.292 54.8488 149.553C54.1806 150.815 53.3871 151.837 52.4682 152.617C53.4539 153.597 54.2223 154.734 54.7737 156.028C55.325 157.324 55.6006 158.686 55.6006 160.113C55.6006 162.089 55.1244 163.891 54.1723 165.518C53.2032 167.145 51.9086 168.448 50.2881 169.428C48.6676 170.391 46.8633 170.873 44.8754 170.873ZM45.6522 141.434H41.7431V149.454H45.6522C46.8383 149.454 47.7989 149.039 48.534 148.209C49.269 147.361 49.6366 146.448 49.6366 145.469C49.6366 144.39 49.244 143.451 48.4588 142.654C47.6737 141.841 46.7381 141.434 45.6522 141.434ZM44.8754 155.631H41.7431L41.6929 164.646H44.8754C46.1116 164.646 47.1724 164.198 48.0578 163.301C48.9432 162.404 49.386 161.342 49.386 160.113C49.386 158.885 48.9432 157.83 48.0578 156.95C47.1724 156.07 46.1116 155.631 44.8754 155.631ZM68.7817 171.371C66.9607 171.371 65.2817 170.906 63.7448 169.976C62.2245 169.047 60.9967 167.81 60.0611 166.265C59.1423 164.705 58.6829 162.995 58.6829 161.134L58.7329 144.971C58.7329 143.078 59.1924 141.375 60.1113 139.866C61.0134 138.338 62.2329 137.118 63.7698 136.203C65.3067 135.274 66.9774 134.81 68.7817 134.81C70.6527 134.81 72.3316 135.266 73.8185 136.179C75.322 137.092 76.5248 138.321 77.427 139.866C78.3458 141.393 78.8052 143.094 78.8052 144.971L78.8553 161.134C78.8553 162.995 78.4043 164.696 77.5021 166.24C76.5833 167.801 75.3638 169.047 73.8436 169.976C72.3233 170.906 70.636 171.371 68.7817 171.371ZM68.7817 165.218C69.8174 165.218 70.7195 164.804 71.4879 163.974C72.2565 163.127 72.6407 162.181 72.6407 161.134L72.5906 144.971C72.5906 143.842 72.2314 142.886 71.5131 142.106C70.7947 141.326 69.8843 140.935 68.7817 140.935C67.7292 140.935 66.827 141.318 66.0753 142.082C65.3235 142.846 64.9476 143.808 64.9476 144.971V161.134C64.9476 162.247 65.3235 163.21 66.0753 164.024C66.827 164.821 67.7292 165.218 68.7817 165.218ZM92.1867 171.371C90.3824 171.371 88.7118 170.906 87.1749 169.976C85.638 169.047 84.4101 167.801 83.4912 166.24C82.5891 164.663 82.138 162.945 82.138 161.084L82.2383 135.581C82.2383 135.448 82.3051 135.382 82.4388 135.382H88.2023C88.336 135.382 88.4027 135.448 88.4027 135.581V161.084C88.4027 162.231 88.7703 163.21 89.5054 164.024C90.2404 164.821 91.1342 165.218 92.1867 165.218C93.2892 165.218 94.2081 164.821 94.9432 164.024C95.6782 163.21 96.0458 162.231 96.0458 161.084V135.581C96.0458 135.448 96.1127 135.382 96.2462 135.382H102.01C102.143 135.382 102.21 135.448 102.21 135.581L102.311 161.084C102.311 162.961 101.859 164.688 100.957 166.265C100.039 167.826 98.8189 169.071 97.2987 170C95.7784 170.915 94.0745 171.371 92.1867 171.371ZM117.296 170.873H111.507C111.357 170.873 111.282 170.79 111.282 170.624V141.534H104.616C104.449 141.534 104.365 141.451 104.365 141.285L104.415 135.581C104.415 135.448 104.482 135.382 104.616 135.382H124.112C124.296 135.382 124.387 135.448 124.387 135.581V141.285C124.387 141.451 124.321 141.534 124.187 141.534H117.446L117.496 170.624C117.496 170.79 117.429 170.873 117.296 170.873Z" fill="#50192F"/>
<path fill-rule="evenodd" clip-rule="evenodd" d="M86.6039 49.0941C86.6039 42.6027 91.8093 37.6176 97.8879 37.6176C100.561 37.6176 102.99 38.5408 104.941 40.135C112.878 46.6196 124.602 45.4817 131.126 37.5931C137.651 29.7045 136.506 18.0528 128.569 11.5682C120.23 4.75533 109.523 0.637695 97.8879 0.637695C75.6371 0.637695 57.0563 15.5477 51.2668 35.7345C41.5414 31.2156 30.69 28.6914 19.2454 28.6914C8.97079 28.6914 0.641602 36.9697 0.641602 47.1813C0.641602 57.393 8.97079 65.6713 19.2454 65.6713C40.5031 65.6713 57.7359 82.7987 57.7359 103.926C57.7359 114.138 66.0652 122.416 76.3397 122.416C86.6143 122.416 94.9435 114.138 94.9435 103.926C94.9435 101.743 94.85 99.5817 94.6666 97.4456C95.731 97.5151 96.8051 97.5505 97.8879 97.5505C109.523 97.5505 120.23 93.4328 128.569 86.62C136.506 80.1352 137.651 68.4835 131.126 60.5951C124.602 52.7065 112.878 51.5685 104.941 58.0531C102.99 59.6474 100.561 60.5706 97.8879 60.5706C91.8093 60.5706 86.6039 55.5854 86.6039 49.0941ZM3.24621 101.07C7.93872 109.856 15.204 117.076 24.0437 121.74C35.9354 128.014 47.4718 116.67 47.4718 103.289V102.014C47.4718 88.6327 36.5577 77.7853 23.0944 77.7853H21.8114C8.34817 77.7853 -3.06635 89.2512 3.24621 101.07Z" fill="#50192F"/>
<path d="M18.7637 186.969C18.6654 187.818 18.3651 188.541 17.8625 189.139C17.36 189.738 16.6774 190.195 15.8144 190.51C14.9515 190.825 13.9248 190.984 12.7341 190.984C11.7401 190.984 10.8281 190.869 9.99787 190.641C9.17863 190.412 8.46868 190.07 7.86786 189.613C7.27801 189.156 6.81923 188.589 6.49154 187.915C6.16385 187.23 6 186.43 6 185.516C6 184.602 6.16385 183.803 6.49154 183.117C6.81923 182.432 7.27801 181.861 7.86786 181.404C8.46868 180.935 9.17863 180.588 9.99787 180.359C10.8281 180.119 11.7401 180 12.7341 180C13.9248 180 14.9515 180.163 15.8144 180.49C16.6882 180.816 17.3764 181.284 17.8789 181.893C18.3814 182.492 18.6764 183.22 18.7637 184.08H16.6009C16.4589 183.623 16.2187 183.231 15.88 182.905C15.5523 182.567 15.1263 182.313 14.602 182.138C14.0777 181.963 13.455 181.877 12.7341 181.877C11.8384 181.877 11.0519 182.019 10.3747 182.301C9.69754 182.574 9.17323 182.982 8.80178 183.525C8.43034 184.059 8.24471 184.722 8.24471 185.516C8.24471 186.3 8.43034 186.957 8.80178 187.491C9.17323 188.025 9.69754 188.433 10.3747 188.715C11.0519 188.988 11.8384 189.123 12.7341 189.123C13.455 189.123 14.0723 189.037 14.5856 188.862C15.1099 188.687 15.5359 188.438 15.8636 188.111C16.2023 187.785 16.448 187.405 16.6009 186.969H18.7637ZM27.1981 190.984C25.789 190.984 24.5819 190.767 23.577 190.331C22.583 189.885 21.8183 189.254 21.2832 188.438C20.7589 187.622 20.4967 186.642 20.4967 185.5C20.4967 184.346 20.7589 183.362 21.2832 182.546C21.8183 181.73 22.583 181.105 23.577 180.669C24.5819 180.224 25.789 180 27.1981 180C28.618 180 29.825 180.224 30.8191 180.669C31.813 181.105 32.5722 181.73 33.0966 182.546C33.6317 183.362 33.8994 184.346 33.8994 185.5C33.8994 186.642 33.6317 187.622 33.0966 188.438C32.5722 189.254 31.813 189.885 30.8191 190.331C29.825 190.767 28.618 190.984 27.1981 190.984ZM27.1981 189.107C28.0719 189.107 28.8365 188.976 29.4919 188.715C30.1581 188.454 30.677 188.057 31.0485 187.524C31.4307 186.99 31.6219 186.316 31.6219 185.5C31.6219 184.684 31.4307 184.01 31.0485 183.476C30.677 182.943 30.1581 182.546 29.4919 182.285C28.8365 182.012 28.0719 181.877 27.1981 181.877C26.3351 181.877 25.565 182.012 24.8878 182.285C24.2105 182.546 23.6807 182.943 23.2985 183.476C22.9161 184.01 22.725 184.684 22.725 185.5C22.725 186.316 22.9161 186.99 23.2985 187.524C23.6807 188.057 24.2105 188.454 24.8878 188.715C25.565 188.976 26.3351 189.107 27.1981 189.107ZM46.775 188.617L46.0868 188.895V180.212H48.266V190.772H46.0868L37.5176 182.432L38.2058 182.154V190.772H36.0266V180.212H38.2058L46.775 188.617ZM50.0906 187.214H52.3026C52.3463 187.584 52.5156 187.92 52.8105 188.226C53.1164 188.519 53.515 188.753 54.0066 188.927C54.4981 189.09 55.0498 189.172 55.6614 189.172C56.2185 189.172 56.6773 189.112 57.0377 188.993C57.3982 188.873 57.6659 188.704 57.8406 188.487C58.0154 188.27 58.1027 188.008 58.1027 187.703C58.1027 187.409 57.9936 187.186 57.775 187.034C57.5566 186.871 57.2126 186.74 56.7428 186.642C56.2732 186.533 55.656 186.425 54.8913 186.316C54.2907 186.23 53.7226 186.109 53.1873 185.957C52.6522 185.794 52.177 185.587 51.7619 185.337C51.3578 185.087 51.0355 184.782 50.7952 184.423C50.5658 184.052 50.4511 183.618 50.4511 183.117C50.4511 182.497 50.6259 181.954 50.9754 181.485C51.3359 181.017 51.8657 180.653 52.5647 180.392C53.2638 180.131 54.1213 180 55.1371 180C56.6665 180 57.8406 180.326 58.6598 180.979C59.49 181.621 59.8942 182.508 59.8723 183.639H57.7423C57.6987 182.998 57.4256 182.535 56.923 182.252C56.4315 181.97 55.8089 181.828 55.0552 181.828C54.3562 181.828 53.7772 181.931 53.3184 182.138C52.8706 182.345 52.6466 182.698 52.6466 183.199C52.6466 183.395 52.7014 183.569 52.8105 183.721C52.9198 183.863 53.1054 183.987 53.3676 184.096C53.6297 184.206 53.9848 184.309 54.4326 184.407C54.8805 184.504 55.4376 184.602 56.1038 184.7C56.7264 184.787 57.2891 184.908 57.7914 185.059C58.3049 185.201 58.7417 185.391 59.1022 185.631C59.4737 185.859 59.7576 186.153 59.9542 186.512C60.1508 186.871 60.2491 187.312 60.2491 187.834C60.2491 188.475 60.0799 189.037 59.7412 189.515C59.4135 189.983 58.9002 190.347 58.201 190.608C57.5129 190.869 56.6173 191 55.514 191C54.7275 191 54.0339 190.918 53.4331 190.755C52.8324 190.581 52.3135 190.352 51.8765 190.07C51.4397 189.787 51.0847 189.477 50.8115 189.139C50.5386 188.802 50.342 188.465 50.2217 188.128C50.1126 187.79 50.0688 187.486 50.0906 187.214ZM71.9042 186.104V180.212H74.0834V186.332C74.0834 187.029 73.9795 187.638 73.7721 188.16C73.5755 188.682 73.2914 189.123 72.9201 189.482C72.5487 189.841 72.1118 190.135 71.6093 190.364C71.1178 190.581 70.5771 190.739 69.9872 190.837C69.4082 190.935 68.7966 190.984 68.1521 190.984C67.4858 190.984 66.8522 190.935 66.2515 190.837C65.6507 190.739 65.099 190.581 64.5967 190.364C64.1051 190.135 63.6791 189.841 63.3187 189.482C62.9582 189.123 62.6741 188.682 62.4666 188.16C62.27 187.638 62.1717 187.029 62.1717 186.332V180.212H64.3509V186.104C64.3509 186.931 64.5147 187.561 64.8424 187.997C65.1701 188.421 65.6179 188.715 66.186 188.878C66.7649 189.03 67.4202 189.107 68.1521 189.107C68.8621 189.107 69.4957 189.03 70.0528 188.878C70.6207 188.715 71.0686 188.421 71.3963 187.997C71.7348 187.561 71.9042 186.931 71.9042 186.104ZM78.7835 180.212V188.96H85.829V190.772H76.6044V180.212H78.7835ZM85.4788 180.212H96.6532V182.024H85.4788V180.212ZM89.9846 181.795H92.1638V190.772H89.9846V181.795ZM98.5486 180.212H100.728V190.772H98.5486V180.212ZM114.298 188.617L113.61 188.895V180.212H115.789V190.772H113.61L105.041 182.432L105.729 182.154V190.772H103.55V180.212H105.729L114.298 188.617ZM124.413 190.984C123.43 190.984 122.54 190.869 121.743 190.641C120.956 190.412 120.273 190.07 119.695 189.613C119.126 189.156 118.689 188.589 118.384 187.915C118.078 187.241 117.925 186.463 117.925 185.582C117.925 184.689 118.083 183.901 118.4 183.215C118.728 182.518 119.187 181.931 119.776 181.453C120.377 180.974 121.087 180.615 121.906 180.375C122.737 180.126 123.654 180 124.659 180C125.85 180 126.876 180.168 127.739 180.506C128.602 180.832 129.28 181.294 129.771 181.893C130.273 182.492 130.558 183.204 130.623 184.031H128.526C128.384 183.595 128.149 183.22 127.821 182.905C127.504 182.579 127.084 182.329 126.56 182.154C126.035 181.97 125.402 181.877 124.659 181.877C123.709 181.877 122.895 182.029 122.218 182.334C121.551 182.639 121.043 183.068 120.694 183.623C120.344 184.178 120.17 184.831 120.17 185.582C120.17 186.311 120.323 186.941 120.628 187.475C120.934 187.997 121.404 188.4 122.038 188.682C122.682 188.965 123.501 189.107 124.495 189.107C125.26 189.107 125.932 189.009 126.511 188.813C127.1 188.606 127.592 188.335 127.985 187.997C128.378 187.649 128.657 187.263 128.821 186.838L129.673 186.528C129.531 187.932 128.995 189.025 128.067 189.809C127.15 190.592 125.932 190.984 124.413 190.984ZM129.116 190.772C129.116 190.434 129.138 190.049 129.181 189.613C129.225 189.167 129.28 188.72 129.345 188.274C129.411 187.818 129.471 187.398 129.525 187.018H124.675V185.631H131V190.772H129.116Z" fill="#50192F"/>
</svg>
